<svg xmlns="http://www.w3.org/2000/svg" xmlns:xlink="http://www.w3.org/1999/xlink" width="500" zoomAndPan="magnify" viewBox="0 0 375 374.999991" height="500" preserveAspectRatio="xMidYMid meet" version="1.0"><defs><clipPath id="39d60a0a01"><path d="M 15.5 15.5 L 358 15.5 L 358 358 L 15.5 358 Z M 15.5 15.5 " clip-rule="nonzero"/></clipPath></defs><g clip-path="url(#39d60a0a01)"><path fill="#ff00ff" d="M 236.765625 267.230469 L 321.082031 351.519531 C 329.429688 359.863281 342.988281 359.863281 351.335938 351.511719 C 359.683594 343.164062 359.679688 329.605469 351.332031 321.257812 L 267.070312 237.027344 C 284.019531 213.972656 294.039062 185.5 294.039062 154.707031 C 294.039062 77.875 231.664062 15.5 154.832031 15.5 C 78.003906 15.5 15.625 77.875 15.625 154.707031 C 15.625 231.535156 78.003906 293.914062 154.832031 293.914062 C 185.453125 293.914062 213.773438 284.007812 236.765625 267.230469 Z M 154.832031 58.285156 C 208.050781 58.285156 251.257812 101.488281 251.257812 154.707031 C 251.257812 207.921875 208.050781 251.128906 154.832031 251.128906 C 101.617188 251.128906 58.414062 207.921875 58.414062 154.707031 C 58.414062 101.488281 101.617188 58.285156 154.832031 58.285156 Z M 154.832031 58.285156 " fill-opacity="1" fill-rule="evenodd"/></g></svg>