<?xml version="1.0" encoding="utf-8"?>
<!-- Generator: Adobe Illustrator 27.4.0, SVG Export Plug-In . SVG Version: 6.00 Build 0)  -->
<svg version="1.1" id="Layer_1" xmlns="http://www.w3.org/2000/svg" xmlns:xlink="http://www.w3.org/1999/xlink" x="0px" y="0px"
	 viewBox="0 0 18 4" style="enable-background:new 0 0 18 4;" xml:space="preserve">
<style type="text/css">
	.st0{fill:none;stroke:#FFFFFF;stroke-width:2;stroke-linecap:round;stroke-linejoin:round;}
</style>
<path class="st0" d="M8,2c0,0.6,0.4,1,1,1s1-0.4,1-1S9.6,1,9,1S8,1.4,8,2z"/>
<path class="st0" d="M15,2c0,0.6,0.4,1,1,1c0.6,0,1-0.4,1-1s-0.4-1-1-1C15.4,1,15,1.4,15,2z"/>
<path class="st0" d="M1,2c0,0.6,0.4,1,1,1s1-0.4,1-1S2.6,1,2,1S1,1.4,1,2z"/>
</svg>
